<svg data-v-423bf9ae="" xmlns="http://www.w3.org/2000/svg" viewBox="0 0 472 90" class="iconLeft"><!----><!----><!----><g data-v-423bf9ae="" id="81aeda77-41b1-43fa-9432-30578234c169" fill="white" transform="matrix(5.439710013831304,0,0,5.439710013831304,110.00000336823413,-6.486855052437818)"><path d="M7.94 9.23L7.94 9.23L7.98 6.13Q7.97 6.03 7.88 6.03Q7.78 6.03 7.71 6.13L7.71 6.13Q7.03 7.84 5.99 10.84Q4.94 13.85 4.89 14Q4.84 14.15 4.62 14.37Q4.40 14.59 4.23 14.59Q4.06 14.59 4.06 14.32L4.06 14.32Q4.05 14.22 4.02 13.39Q3.99 12.56 3.93 11.69Q3.88 10.82 3.79 9.89Q3.70 8.96 3.53 8.36Q3.36 7.77 3.15 7.77L3.15 7.77Q2.79 7.77 1.09 13.51L1.09 13.51Q0.87 14.29 0.85 14.32L0.85 14.32Q0.80 14.50 0.59 14.64Q0.39 14.77 0.21 14.77L0.21 14.77Q0.06 14.77 0.06 14.55L0.06 14.55Q0.15 11.66 0.15 9.77L0.15 9.77Q0.15 6.20 0.04 4.97L0.04 4.97L0 4.51Q0 4.41 0.20 4.22Q0.39 4.03 0.56 4.03Q0.73 4.03 0.73 4.34L0.73 4.34L0.73 4.44L0.76 5.61L0.76 6.19Q0.76 11.52 0.69 12.64L0.69 12.64Q0.69 12.89 0.73 12.89Q0.77 12.89 1.90 9.47Q3.02 6.05 3.15 5.63Q3.28 5.21 3.47 4.99Q3.67 4.77 3.89 4.77L3.89 4.77Q4.21 4.77 4.42 6.61Q4.63 8.44 4.75 10.28Q4.87 12.11 4.94 12.11Q5.00 12.11 5.31 11.31Q5.61 10.51 6.01 9.38Q6.41 8.25 6.80 7.11L6.80 7.11Q7.77 4.40 7.87 4.45L7.87 4.45Q7.84 4.44 7.95 4.34L7.95 4.34Q8.29 4.06 8.50 4.03L8.50 4.03Q8.81 4.07 8.81 4.41L8.81 4.41L8.81 4.77Q8.81 5.82 8.85 6.45L8.85 6.45Q9.27 13.44 11.97 13.44L11.97 13.44Q12.19 13.44 12.38 13.31Q12.56 13.19 12.62 13.19Q12.68 13.19 12.77 13.27Q12.85 13.36 12.85 13.45L12.85 13.45Q12.85 13.82 12.09 14.31Q11.33 14.81 10.60 14.81L10.60 14.81Q7.94 14.81 7.94 9.23ZM16.46 12.33L16.46 12.33L16.41 12.73Q16.41 12.98 16.63 13.25Q16.84 13.52 17.14 13.52L17.14 13.52Q17.36 13.52 17.50 13.43L17.50 13.43Q17.81 13.22 17.88 13.14Q17.96 13.06 18.14 13.06Q18.31 13.06 18.31 13.19L18.31 13.19Q18.31 13.33 17.65 14.07L17.65 14.07Q17.44 14.31 17.04 14.57Q16.63 14.84 16.32 14.84Q16.00 14.84 15.84 14.73Q15.68 14.63 15.61 14.41L15.61 14.41Q15.53 14.10 15.53 13.65L15.53 13.65Q15.53 13.59 15.46 13.59Q15.39 13.59 15.13 13.87L15.13 13.87Q14.35 14.69 13.87 14.69Q13.38 14.69 13.13 14.43Q12.87 14.18 12.87 13.79L12.87 13.79Q12.87 13.10 13.23 12.48Q13.59 11.86 14.10 11.48L14.10 11.48Q15.22 10.65 15.83 10.65L15.83 10.65Q16.76 10.68 16.76 11.31L16.76 11.31Q16.76 11.54 16.56 11.75Q16.37 11.97 16.20 11.97Q16.03 11.97 15.74 11.68Q15.44 11.38 15.09 11.38Q14.74 11.38 14.52 11.67Q14.29 11.96 14.29 12.40L14.29 12.40Q14.29 13.13 15.06 13.13L15.06 13.13Q15.37 13.13 15.57 12.98Q15.78 12.82 15.86 12.64L15.86 12.64Q16.10 12.17 16.30 12.17L16.30 12.17Q16.46 12.17 16.46 12.33ZM18.03 12.29L18.03 12.29L17.65 12.32Q17.40 12.32 17.40 12.19L17.40 12.19Q17.40 12.00 17.90 11.45Q18.40 10.89 18.79 10.89L18.79 10.89Q18.96 10.89 19.09 10.99Q19.22 11.09 19.24 11.23L19.24 11.23L19.31 11.86Q19.35 11.91 19.39 11.91Q19.43 11.91 19.61 11.69L19.61 11.69Q20.20 11.00 20.66 11.00L20.66 11.00Q20.85 11.00 20.96 11.06Q21.07 11.12 21.22 11.28Q21.36 11.44 21.38 11.45L21.38 11.45Q21.48 11.41 21.57 11.41L21.57 11.41Q21.73 11.41 21.73 11.60Q21.73 11.79 21.18 12.30Q20.64 12.81 20.37 12.81Q20.10 12.81 19.92 12.57Q19.74 12.33 19.66 12.33L19.66 12.33Q19.33 12.33 19.33 12.67L19.33 12.67Q19.33 12.92 19.57 13.52Q19.80 14.13 19.80 14.24L19.80 14.24Q19.80 14.52 19.51 14.68Q19.22 14.84 18.88 14.84Q18.54 14.84 18.33 14.73Q18.12 14.62 18.12 14.42L18.12 14.42L18.51 12.73Q18.51 12.29 18.03 12.29ZM22.23 10.92Q22.57 10.08 22.86 8.99Q23.16 7.91 23.16 7.39Q23.16 6.87 23.07 6.64Q22.97 6.40 22.85 6.40L22.85 6.40Q22.39 6.40 22.23 8.97L22.23 8.97L22.23 10.92ZM25.96 12.42L25.96 12.42Q25.89 12.42 25.82 12.49Q25.76 12.57 25.66 12.68Q25.56 12.78 25.24 12.96Q24.92 13.13 24.58 13.13L24.58 13.13Q23.98 13.13 23.56 12.65Q23.13 12.17 23.13 11.92Q23.13 11.68 23.06 11.65L23.06 11.65Q22.99 11.65 22.88 11.86L22.88 11.86Q22.58 12.40 22.58 13.14Q22.58 13.87 22.98 14.29Q23.38 14.70 23.83 14.70L23.83 14.70Q24.60 14.70 25.37 13.89Q26.14 13.09 26.14 12.68L26.14 12.68Q26.14 12.42 25.96 12.42ZM22.25 11.59L22.25 11.59L22.25 11.68Q22.25 11.84 22.28 11.84Q22.32 11.84 22.37 11.79L22.37 11.79Q22.68 10.91 23.14 10.25Q23.60 9.60 24.15 9.60L24.15 9.60Q24.64 9.60 24.64 10.26L24.64 10.26Q24.64 10.50 24.41 10.91Q24.18 11.33 23.97 11.33L23.97 11.33Q23.88 11.33 23.80 11.19Q23.72 11.06 23.51 11.06L23.51 11.06Q23.10 11.06 22.82 11.42Q22.54 11.77 22.41 12.33L22.41 12.33Q22.22 13.29 22.22 14.15L22.22 14.15Q22.22 14.57 21.84 14.57L21.84 14.57Q21.77 14.57 21.77 14.45L21.77 14.45Q21.83 13.54 21.83 12.17L21.83 12.17L21.83 10.18Q21.83 7.59 22.01 6.65L22.01 6.65Q22.22 5.61 22.54 5.31L22.54 5.31Q22.74 5.12 23.00 5.12L23.00 5.12Q23.76 5.12 23.76 6.26Q23.76 7.39 23.23 9.04Q22.71 10.70 22.25 11.59ZM26.66 12.52Q26.89 12.43 27.14 11.98Q27.38 11.52 27.38 11.23Q27.38 10.93 27.16 10.92L27.16 10.92Q26.82 10.92 26.68 11.22Q26.54 11.52 26.54 11.88Q26.54 12.24 26.66 12.52L26.66 12.52ZM27.86 13.43L27.86 13.43Q28.25 13.43 28.51 13.25Q28.77 13.08 29.00 12.80Q29.23 12.52 29.37 12.52Q29.50 12.52 29.50 12.64L29.50 12.64Q29.50 12.73 29.44 12.84L29.44 12.84Q28.98 13.58 28.29 14.15Q27.61 14.71 26.84 14.71Q26.07 14.71 25.73 14.34Q25.38 13.97 25.38 13.36L25.38 13.36Q25.38 12.29 26.18 11.18Q26.98 10.07 27.83 10.07L27.83 10.07Q28.28 10.07 28.28 10.43L28.28 10.43Q28.28 10.92 27.97 11.45Q27.66 11.97 26.84 12.87L26.84 12.87Q27.22 13.43 27.86 13.43ZM26.49 9.83L26.49 9.83Q26.49 9.55 26.94 9.41L26.94 9.41Q27.62 9.11 29.18 8.50L29.18 8.50Q29.46 6.37 30.02 6.37L30.02 6.37Q30.38 6.37 30.38 7.53L30.38 7.53Q30.38 7.87 30.37 8.04L30.37 8.04Q32.49 7.22 33.22 7.04Q33.95 6.86 34.38 6.86L34.38 6.86Q35.04 6.86 35.04 7.34L35.04 7.34Q35.04 7.49 34.85 7.59L34.85 7.59Q33.98 8.02 33.77 8.02L33.77 8.02Q33.73 8.02 33.63 7.96Q33.53 7.90 33.40 7.90Q33.28 7.90 32.89 7.99L32.89 7.99Q32.09 8.20 30.27 8.81L30.27 8.81Q30.10 9.90 29.78 10.37L29.78 10.37Q29.83 11.97 30.20 12.53L30.20 12.53Q30.37 12.80 30.68 12.99Q31.00 13.19 31.46 13.19Q31.92 13.19 32.37 12.77L32.37 12.77Q32.45 12.68 32.51 12.68L32.51 12.68Q32.62 12.68 32.62 12.87L32.62 12.87Q32.62 13.45 31.84 14.05Q31.05 14.64 30.34 14.64L30.34 14.64Q28.92 14.64 28.92 12.35L28.92 12.35Q28.92 10.91 29.09 9.24L29.09 9.24Q27.93 9.69 27.38 9.97Q26.82 10.25 26.73 10.25Q26.63 10.25 26.56 10.11Q26.49 9.97 26.49 9.83ZM35.56 4.26L35.56 4.26Q35.64 4.16 35.73 4.16Q35.81 4.16 35.89 4.23Q35.97 4.30 35.97 4.40Q35.97 4.51 35.83 4.69L35.83 4.69Q35.14 5.70 34.50 7.42Q33.85 9.14 33.85 10.39Q33.85 11.65 34.29 12.22Q34.72 12.80 35.27 12.80Q35.83 12.80 36.41 12.22Q37.00 11.65 37.53 10.74L37.53 10.74Q38.47 9.09 38.95 7.97L38.95 7.97Q39.12 7.60 39.21 7.60Q39.31 7.60 39.39 7.67Q39.47 7.74 39.47 7.80Q39.47 7.85 39.39 8.36Q39.31 8.86 39.31 9.60L39.31 9.60Q39.31 12.92 41.27 12.92L41.27 12.92Q41.90 12.92 42.42 12.55Q42.94 12.18 43.23 11.63L43.23 11.63Q43.85 10.47 43.85 9.61Q43.85 8.75 43.48 7.78Q43.11 6.82 42.37 6.04Q41.64 5.26 40.77 5.24L40.77 5.24Q40.52 5.22 40.52 5.04L40.52 5.04Q40.52 4.75 41.02 4.35Q41.52 3.95 42.14 3.95L42.14 3.95Q43.16 3.95 43.94 4.99Q44.72 6.03 44.72 8.01L44.72 8.01Q44.72 9.35 44.25 10.65Q43.79 11.94 43.09 12.86Q42.38 13.78 41.53 14.34Q40.68 14.91 39.94 14.91L39.94 14.91Q39.45 14.91 39.10 14.65Q38.75 14.39 38.57 13.99L38.57 13.99Q38.26 13.23 38.26 12.39L38.26 12.39Q38.26 11.65 38.37 11.09Q38.49 10.53 38.54 10.25Q38.60 9.98 38.60 9.93Q38.60 9.88 38.58 9.88L38.58 9.88Q38.50 9.88 38.32 10.27Q38.14 10.65 38.00 10.92L38.00 10.92Q37.11 12.59 35.81 13.99L35.81 13.99Q34.89 14.98 33.92 14.98L33.92 14.98Q33.43 14.98 32.89 14.52L32.89 14.52Q32.59 14.27 32.41 13.75Q32.23 13.24 32.23 12.46Q32.23 11.68 32.63 10.35Q33.03 9.02 33.75 7.49L33.75 7.49Q34.78 5.32 35.56 4.26ZM46.07 6.19L46.07 6.19Q45.50 6.19 45.50 9.98L45.50 9.98L45.50 10.82Q45.86 9.90 46.18 8.78Q46.49 7.66 46.49 6.92Q46.49 6.19 46.07 6.19ZM45.64 13.44L45.64 13.44Q45.78 13.44 46.45 12.52Q47.12 11.59 47.31 11.58Q47.49 11.58 47.67 11.89Q47.85 12.19 48.03 12.56Q48.20 12.94 48.59 13.25Q48.99 13.57 49.38 13.57Q49.77 13.57 49.85 13.51Q49.94 13.45 49.99 13.45Q50.04 13.45 50.04 13.57L50.04 13.57Q50.02 13.85 49.59 14.24Q49.15 14.64 48.44 14.64L48.44 14.64Q47.24 14.64 46.76 13.26L46.76 13.26Q46.72 13.17 46.68 13.17Q46.65 13.17 46.58 13.23Q46.51 13.29 46.28 13.55Q46.06 13.82 45.83 14.10Q45.60 14.38 45.54 14.43Q45.49 14.49 45.33 14.49Q45.18 14.49 45.16 14.32L45.16 14.32Q45.04 13.06 45.04 11.68Q45.04 10.30 45.07 9.55Q45.11 8.79 45.22 7.60Q45.33 6.41 45.62 5.66Q45.91 4.90 46.34 4.90L46.34 4.90Q47.25 4.90 47.25 6.17L47.25 6.17Q47.25 7.27 46.66 8.92Q46.07 10.58 45.53 11.55L45.53 11.55Q45.58 13.44 45.64 13.44ZM53.20 12.33L53.20 12.33L53.14 12.73Q53.14 12.98 53.36 13.25Q53.58 13.52 53.87 13.52L53.87 13.52Q54.10 13.52 54.24 13.43L54.24 13.43Q54.54 13.22 54.62 13.14Q54.70 13.06 54.87 13.06Q55.05 13.06 55.05 13.19L55.05 13.19Q55.05 13.33 54.39 14.07L54.39 14.07Q54.18 14.31 53.77 14.57Q53.37 14.84 53.05 14.84Q52.74 14.84 52.58 14.73Q52.42 14.63 52.35 14.41L52.35 14.41Q52.26 14.10 52.26 13.65L52.26 13.65Q52.26 13.59 52.19 13.59Q52.12 13.59 51.87 13.87L51.87 13.87Q51.09 14.69 50.60 14.69Q50.12 14.69 49.86 14.43Q49.60 14.18 49.60 13.79L49.60 13.79Q49.60 13.10 49.97 12.48Q50.33 11.86 50.83 11.48L50.83 11.48Q51.95 10.65 52.57 10.65L52.57 10.65Q53.49 10.68 53.49 11.31L53.49 11.31Q53.49 11.54 53.30 11.75Q53.10 11.97 52.93 11.97Q52.77 11.97 52.47 11.68Q52.18 11.38 51.83 11.38Q51.48 11.38 51.25 11.67Q51.03 11.96 51.03 12.40L51.03 12.40Q51.03 13.13 51.80 13.13L51.80 13.13Q52.11 13.13 52.31 12.98Q52.51 12.82 52.60 12.64L52.60 12.64Q52.84 12.17 53.03 12.17L53.03 12.17Q53.20 12.17 53.20 12.33ZM56.04 6.37Q55.65 6.37 55.45 7.28Q55.24 8.19 55.24 9.13Q55.24 10.07 55.44 10.98L55.44 10.98Q56.41 9.53 56.41 7.11L56.41 7.11Q56.41 6.76 56.30 6.57Q56.20 6.37 56.04 6.37L56.04 6.37ZM57.40 13.17L57.40 13.17Q57.62 13.17 58.04 13.01Q58.46 12.84 58.62 12.84Q58.77 12.84 58.77 12.98L58.77 12.98Q58.77 13.30 57.90 13.92Q57.02 14.55 56.49 14.55Q55.96 14.55 55.62 14.38Q55.29 14.21 55.08 13.88Q54.88 13.55 54.75 13.23Q54.63 12.91 54.59 12.45L54.59 12.45Q54.50 11.73 54.50 10.78Q54.50 9.83 54.75 8.50Q55.01 7.17 55.46 6.24Q55.92 5.32 56.42 5.29L56.42 5.29Q56.56 5.31 56.65 5.34Q56.74 5.38 56.83 5.58Q56.92 5.78 56.92 6.16L56.92 6.16Q56.92 9.60 55.57 11.45L55.57 11.45Q56.13 13.17 57.40 13.17ZM59.35 12.52Q59.58 12.43 59.83 11.98Q60.07 11.52 60.07 11.23Q60.07 10.93 59.85 10.92L59.85 10.92Q59.51 10.92 59.37 11.22Q59.23 11.52 59.23 11.88Q59.23 12.24 59.35 12.52L59.35 12.52ZM60.55 13.43L60.55 13.43Q60.94 13.43 61.20 13.25Q61.46 13.08 61.69 12.80Q61.92 12.52 62.05 12.52Q62.19 12.52 62.19 12.64L62.19 12.64Q62.19 12.73 62.13 12.84L62.13 12.84Q61.67 13.58 60.98 14.15Q60.30 14.71 59.53 14.71Q58.76 14.71 58.41 14.34Q58.07 13.97 58.07 13.36L58.07 13.36Q58.07 12.29 58.87 11.18Q59.67 10.07 60.52 10.07L60.52 10.07Q60.97 10.07 60.97 10.43L60.97 10.43Q60.97 10.92 60.66 11.45Q60.35 11.97 59.53 12.87L59.53 12.87Q59.91 13.43 60.55 13.43ZM65.21 13.23Q65.32 13.23 65.58 13.06Q65.83 12.89 65.98 12.73L65.98 12.73L66.14 12.57Q66.23 12.47 66.33 12.47L66.33 12.47Q66.50 12.47 66.50 12.67L66.50 12.67Q66.50 12.74 66.49 12.78L66.49 12.78Q66.12 13.66 65.14 14.20Q64.16 14.74 63.39 14.74L63.39 14.74Q61.89 14.74 61.89 13.57L61.89 13.57Q61.89 13.41 62.26 13.08Q62.62 12.74 62.79 12.66L62.79 12.66Q62.90 12.57 62.97 12.57Q63.03 12.57 63.07 12.63Q63.11 12.68 63.17 12.77Q63.22 12.85 63.27 12.91Q63.31 12.96 63.38 13.06Q63.45 13.16 63.53 13.22Q63.60 13.29 63.70 13.34L63.70 13.34Q63.88 13.48 64.09 13.48Q64.29 13.48 64.29 13.24L64.29 13.24Q64.29 12.66 63.85 12.23Q63.42 11.80 63.13 11.80L63.13 11.80Q63.06 11.80 62.99 11.89L62.99 11.89L62.47 12.40Q62.34 12.53 62.29 12.53L62.29 12.53Q62.08 12.53 62.08 12.35L62.08 12.35Q63.57 10.51 63.85 10.51L63.85 10.51Q64.25 10.51 64.75 11.05Q65.25 11.58 65.25 12.11L65.25 12.11Q65.25 12.61 65.18 12.88Q65.10 13.15 65.10 13.19Q65.10 13.23 65.21 13.23Z"></path></g><!----><g data-v-423bf9ae="" id="b2363c0f-2ffc-49cd-9f5e-6576d7619791" transform="matrix(2.8125,0,0,2.8125,0,0)" stroke="none" fill="white"><path d="M0 16.024L15.976 32 32 15.976 16.024 0 0 16.024zm15.989 7.323l-7.336-7.336 14.694-.022-7.358 7.358z"></path></g><!----></svg>